<svg xmlns="http://www.w3.org/2000/svg" width="110" height="110" version="1.0" viewBox="0 0 110 110"><path fill="#F0F1F1" d="M23.138 83.047l15.514-34.68c-.702 3.651 3.525 10.256 8.125 14.857 5.591 5.591 11.866 8.87 15.116 8.034a82633.743 82633.743 0 0 1-34.939 15.605c-.798.367-2.002-.017-2.896-.92-.903-.894-1.287-2.098-.92-2.896z"/><path fill="#FFF" d="M23.138 83.047l15.514-34.68c-.701 3.648 3.517 10.244 8.112 14.844L24.045 85.928c-.893-.891-1.272-2.087-.907-2.881z"/><circle cx="46" cy="37" r="2" fill="#DF2C2C"/><circle cx="62" cy="41" r="2" fill="#F37A10"/><circle cx="81" cy="49" r="2" fill="#059BBF"/><circle cx="82" cy="71" r="2" fill="#FA5655"/><circle cx="59" cy="27" r="2" fill="#12B2A0"/><path fill="#FA5655" d="M72.877 26.652l-3.952 2.014-3.137-3.137.694 4.382-3.953 2.014 4.382.694.694 4.381 2.014-3.953 4.381.694-3.137-3.136z"/><path fill="#F37A10" d="M72.035 60l-.953 2.932H68l2.494 1.656-.953 2.854 2.494-1.851 2.494 1.792-.953-2.785 2.494-1.666h-3.082z"/><path fill="#DF2C2C" d="M65 50c9.961 0 12.055-6.333 13.737-11.421C80.138 34.345 81.244 31 86 31a1 1 0 0 0 0-2c-6.201 0-7.706 4.551-9.161 8.951C75.13 43.119 73.516 48 65 48a1 1 0 0 0 0 2z"/><path fill="#059BBF" d="M51.625 43.781c7.008-5.607 4.519-9.36 2.112-12.991C52.391 28.761 51 26.663 51 24a1 1 0 0 0-2 0c0 3.266 1.631 5.725 3.07 7.896 2.34 3.528 3.886 5.86-1.695 10.324a1 1 0 0 0 1.25 1.561z"/><path fill="#12B2A0" d="M86 62a1 1 0 0 0 0-2c-2.858 0-5.139-1.521-7.345-2.992-3.562-2.375-7.246-4.832-12.362.285a.999.999 0 1 0 1.414 1.414c3.957-3.956 6.296-2.396 9.838-.035C79.885 60.232 82.536 62 86 62z"/><path fill="#DF2C2C" d="M39.221 81.352c-9.117 4.109 1.86-.816-7.266 3.274a70.358 70.358 0 0 1-6.222-7.38l3.716-8.307a52.71 52.71 0 0 0 9.772 12.413z"/><path fill="#FA5655" d="M34.133 75.84l-5.316 5.317a66.304 66.304 0 0 1-3.084-3.912l3.716-8.307a52.524 52.524 0 0 0 4.684 6.902z"/><path fill="#E2E4E5" d="M46.777 63.223c6.48 6.479 13.889 9.868 16.428 7.325 2.519-2.519-.767-9.871-7.327-16.44-6.569-6.56-13.919-9.835-16.439-7.327-2.933 2.93 1.959 11.063 7.338 16.442z"/><path fill="#DF2C2C" d="M45.322 66.558c-3.574-4.837-5.737-9.946-6.194-14.51-.487-1.39-.674-2.649-.477-3.679L33.04 60.932c1.406 3.037 3.227 6.089 5.41 9.045a58.047 58.047 0 0 0 7.555 8.375l7.602-3.396c-3.014-2.251-5.871-5.117-8.285-8.398z"/><path fill="#F0F1F1" d="M55.871 54.102l-9.107 9.107c-5.374-5.379-10.255-13.501-7.326-16.428 2.52-2.506 9.866.766 16.433 7.321z"/><path fill="#FA5655" d="M38.651 48.369L33.04 60.932c1.406 3.037 3.227 6.089 5.41 9.045.219.296.453.578.677.87l5.413-5.413c-3.102-4.503-4.994-9.18-5.416-13.395-.484-1.387-.67-2.643-.473-3.67z"/></svg>